# xmcd
#
# Track frame offsets: 
#        150
#        19292
#        30037
#        42372
#        56430
#        109042
#        124345
#        136482
#        154230
#        170152
#        194185
#        212237
#        230520
#
# Disc length: 3374 seconds
#
# Revision: 0
# Processed by: cddbd v1.5.2PL0 Copyright (c) Steve Scherf et al.
# Submitted via: ExactAudioCopy v0.95b3
#
DISCID=bd0d2c0d
DTITLE=Various Artist - Relix's Best of Truck Driving Songs
DYEAR=1997
DGENRE=Country
TTITLE0=Flying Burrito Brothers - Six Days on the Road
TTITLE1=Commander Cody - Two Triple Cheese, Side Order of Fries
TTITLE2=Stackabones - Beat It On Down the Line
TTITLE3=The New Riders of the Purple Sage - Diesel On My Tail
TTITLE4=Dead Ringers - Truckin'
TTITLE5=Flying Burrito Brothers - Truck Drivin' Man
TTITLE6=Commander Cody - Midnight Shift
TTITLE7=Tom Brown - The Wheel
TTITLE8=Flying Burrito Brothers - White Line Fever
TTITLE9=Commander Cody - Hot Rod Lincoln
TTITLE10=Stackabones - Turn On Your Lovelight
TTITLE11=Flying Burrito Brothers - Hot Burrito
TTITLE12=Stackabones - This Land Is Your Land
EXTD=
EXTT0=
EXTT1=
EXTT2=
EXTT3=
EXTT4=
EXTT5=
EXTT6=
EXTT7=
EXTT8=
EXTT9=
EXTT10=
EXTT11=
EXTT12=
PLAYORDER=
